<?xml version="1.0" encoding="UTF-8" standalone="no"?>
<!DOCTYPE svg PUBLIC "-//W3C//DTD SVG 1.1//EN"
 "http://www.w3.org/Graphics/SVG/1.1/DTD/svg11.dtd">
<!-- Generated by graphviz version 9.0.0 (0)
 -->
<!-- Pages: 1 -->
<svg width="744pt" height="549pt"
 viewBox="0.00 0.00 744.00 549.25" xmlns="http://www.w3.org/2000/svg" xmlns:xlink="http://www.w3.org/1999/xlink">
<g id="graph0" class="graph" transform="scale(1 1) rotate(0) translate(4 545.25)">
<polygon fill="white" stroke="none" points="-4,4 -4,-545.25 740,-545.25 740,4 -4,4"/>
<text text-anchor="middle" x="368" y="-7.95" font-family="Times,serif" font-size="14.00">samples/if.go</text>
<g id="clust1" class="cluster">
<title>cluster_ifStatement</title>
<polygon fill="none" stroke="black" points="8,-33.25 8,-533.25 242,-533.25 242,-33.25 8,-33.25"/>
<text text-anchor="middle" x="125" y="-515.95" font-family="Times,serif" font-size="14.00">ifStatement</text>
</g>
<g id="clust2" class="cluster">
<title>cluster_elseStatement</title>
<polygon fill="none" stroke="black" points="250,-33.25 250,-533.25 486,-533.25 486,-33.25 250,-33.25"/>
<text text-anchor="middle" x="368" y="-515.95" font-family="Times,serif" font-size="14.00">elseStatement</text>
</g>
<g id="clust3" class="cluster">
<title>cluster_elseIfStatement</title>
<polygon fill="none" stroke="black" points="494,-33.25 494,-533.25 728,-533.25 728,-33.25 494,-33.25"/>
<text text-anchor="middle" x="611" y="-515.95" font-family="Times,serif" font-size="14.00">elseIfStatement</text>
</g>
<!-- ifStatement_0 -->
<g id="node1" class="node">
<title>ifStatement_0</title>
<polygon fill="none" stroke="black" points="189,-500 71,-500 71,-457.5 189,-457.5 189,-500"/>
<text text-anchor="middle" x="130" y="-482.7" font-family="Times,serif" font-size="14.00">var what = 42</text>
<text text-anchor="middle" x="130" y="-465.45" font-family="Times,serif" font-size="14.00">var this = 0</text>
</g>
<!-- ifStatement_1 -->
<g id="node2" class="node">
<title>ifStatement_1</title>
<polygon fill="none" stroke="black" points="130,-420.5 30.8,-402.5 130,-384.5 229.2,-402.5 130,-420.5"/>
<text text-anchor="middle" x="130" y="-397.82" font-family="Times,serif" font-size="14.00">if what &gt; 0 </text>
</g>
<!-- ifStatement_0&#45;&gt;ifStatement_1 -->
<g id="edge1" class="edge">
<title>ifStatement_0&#45;&gt;ifStatement_1</title>
<path fill="none" stroke="black" d="M130,-457.07C130,-449.25 130,-440.22 130,-431.82"/>
<polygon fill="black" stroke="black" points="133.5,-432.08 130,-422.08 126.5,-432.08 133.5,-432.08"/>
</g>
<!-- ifStatement_2 -->
<g id="node3" class="node">
<title>ifStatement_2</title>
<polygon fill="none" stroke="black" points="115,-331.25 15.8,-313.25 115,-295.25 214.2,-313.25 115,-331.25"/>
<text text-anchor="middle" x="115" y="-308.57" font-family="Times,serif" font-size="14.00">if what &lt; 0 </text>
</g>
<!-- ifStatement_1&#45;&gt;ifStatement_2 -->
<g id="edge2" class="edge">
<title>ifStatement_1&#45;&gt;ifStatement_2</title>
<path fill="none" stroke="black" d="M127.11,-384.68C125.03,-372.61 122.19,-356.07 119.78,-342.05"/>
<polygon fill="black" stroke="black" points="123.28,-341.78 118.14,-332.51 116.38,-342.96 123.28,-341.78"/>
<text text-anchor="middle" x="138" y="-353.2" font-family="Times,serif" font-size="14.00">true</text>
</g>
<!-- ifStatement_4 -->
<g id="node5" class="node">
<title>ifStatement_4</title>
<polygon fill="none" stroke="black" points="203.12,-150.25 100.88,-150.25 100.88,-114.25 203.12,-114.25 203.12,-150.25"/>
<text text-anchor="middle" x="152" y="-127.58" font-family="Times,serif" font-size="14.00">println(this)</text>
</g>
<!-- ifStatement_1&#45;&gt;ifStatement_4 -->
<g id="edge3" class="edge">
<title>ifStatement_1&#45;&gt;ifStatement_4</title>
<path fill="none" stroke="black" d="M157.67,-389.32C179.87,-377.87 209.47,-358.42 223,-331.25 230.13,-316.93 227.26,-310.67 223,-295.25 220.52,-286.27 216.02,-285.77 212.25,-277.25 195.35,-239.02 202.09,-225.39 185,-187.25 180.91,-178.13 175.56,-168.67 170.36,-160.26"/>
<polygon fill="black" stroke="black" points="173.34,-158.43 165,-151.9 167.45,-162.21 173.34,-158.43"/>
<text text-anchor="middle" x="228.88" y="-254.57" font-family="Times,serif" font-size="14.00">false</text>
</g>
<!-- ifStatement_3 -->
<g id="node4" class="node">
<title>ifStatement_3</title>
<polygon fill="none" stroke="black" points="115.62,-223.25 16.38,-223.25 16.38,-187.25 115.62,-187.25 115.62,-223.25"/>
<text text-anchor="middle" x="66" y="-200.57" font-family="Times,serif" font-size="14.00">this = what</text>
</g>
<!-- ifStatement_2&#45;&gt;ifStatement_3 -->
<g id="edge4" class="edge">
<title>ifStatement_2&#45;&gt;ifStatement_3</title>
<path fill="none" stroke="black" d="M107.56,-296.15C99.92,-279.63 87.9,-253.62 78.75,-233.82"/>
<polygon fill="black" stroke="black" points="82.01,-232.54 74.64,-224.93 75.66,-235.48 82.01,-232.54"/>
<text text-anchor="middle" x="112" y="-254.57" font-family="Times,serif" font-size="14.00">true</text>
</g>
<!-- ifStatement_2&#45;&gt;ifStatement_4 -->
<g id="edge5" class="edge">
<title>ifStatement_2&#45;&gt;ifStatement_4</title>
<path fill="none" stroke="black" d="M123.31,-296.59C126.14,-290.67 129.07,-283.79 131,-277.25 142.51,-238.24 147.85,-191.34 150.22,-161.91"/>
<polygon fill="black" stroke="black" points="153.71,-162.17 150.96,-151.94 146.73,-161.66 153.71,-162.17"/>
<text text-anchor="middle" x="163.88" y="-200.57" font-family="Times,serif" font-size="14.00">false</text>
</g>
<!-- ifStatement_3&#45;&gt;ifStatement_4 -->
<g id="edge6" class="edge">
<title>ifStatement_3&#45;&gt;ifStatement_4</title>
<path fill="none" stroke="black" d="M86.82,-187.06C97.51,-178.23 110.73,-167.32 122.46,-157.64"/>
<polygon fill="black" stroke="black" points="124.42,-160.55 129.91,-151.49 119.97,-155.16 124.42,-160.55"/>
</g>
<!-- ifStatement_5 -->
<g id="node6" class="node">
<title>ifStatement_5</title>
<polygon fill="none" stroke="black" points="180.25,-71.25 111.75,-71.25 111.75,-47.25 180.25,-47.25 192.25,-59.25 180.25,-71.25"/>
<text text-anchor="middle" x="152" y="-54.58" font-family="Times,serif" font-size="14.00">RETURN</text>
</g>
<!-- ifStatement_4&#45;&gt;ifStatement_5 -->
<g id="edge7" class="edge">
<title>ifStatement_4&#45;&gt;ifStatement_5</title>
<path fill="none" stroke="black" d="M152,-114.06C152,-106.48 152,-97.35 152,-88.79"/>
<polygon fill="black" stroke="black" points="155.5,-88.79 152,-78.79 148.5,-88.79 155.5,-88.79"/>
</g>
<!-- elseStatement_0 -->
<g id="node7" class="node">
<title>elseStatement_0</title>
<polygon fill="none" stroke="black" points="432,-500 314,-500 314,-457.5 432,-457.5 432,-500"/>
<text text-anchor="middle" x="373" y="-482.7" font-family="Times,serif" font-size="14.00">var what = 42</text>
<text text-anchor="middle" x="373" y="-465.45" font-family="Times,serif" font-size="14.00">var this = 0</text>
</g>
<!-- elseStatement_1 -->
<g id="node8" class="node">
<title>elseStatement_1</title>
<polygon fill="none" stroke="black" points="373,-420.5 273.8,-402.5 373,-384.5 472.2,-402.5 373,-420.5"/>
<text text-anchor="middle" x="373" y="-397.82" font-family="Times,serif" font-size="14.00">if what &gt; 0 </text>
</g>
<!-- elseStatement_0&#45;&gt;elseStatement_1 -->
<g id="edge8" class="edge">
<title>elseStatement_0&#45;&gt;elseStatement_1</title>
<path fill="none" stroke="black" d="M373,-457.07C373,-449.25 373,-440.22 373,-431.82"/>
<polygon fill="black" stroke="black" points="376.5,-432.08 373,-422.08 369.5,-432.08 376.5,-432.08"/>
</g>
<!-- elseStatement_2 -->
<g id="node9" class="node">
<title>elseStatement_2</title>
<polygon fill="none" stroke="black" points="357,-331.25 257.8,-313.25 357,-295.25 456.2,-313.25 357,-331.25"/>
<text text-anchor="middle" x="357" y="-308.57" font-family="Times,serif" font-size="14.00">if what &lt; 0 </text>
</g>
<!-- elseStatement_1&#45;&gt;elseStatement_2 -->
<g id="edge9" class="edge">
<title>elseStatement_1&#45;&gt;elseStatement_2</title>
<path fill="none" stroke="black" d="M369.92,-384.68C367.7,-372.61 364.67,-356.07 362.1,-342.05"/>
<polygon fill="black" stroke="black" points="365.59,-341.71 360.35,-332.51 358.71,-342.98 365.59,-341.71"/>
<text text-anchor="middle" x="381" y="-353.2" font-family="Times,serif" font-size="14.00">true</text>
</g>
<!-- elseStatement_5 -->
<g id="node12" class="node">
<title>elseStatement_5</title>
<polygon fill="none" stroke="black" points="468.12,-150.25 365.88,-150.25 365.88,-114.25 468.12,-114.25 468.12,-150.25"/>
<text text-anchor="middle" x="417" y="-127.58" font-family="Times,serif" font-size="14.00">println(this)</text>
</g>
<!-- elseStatement_1&#45;&gt;elseStatement_5 -->
<g id="edge10" class="edge">
<title>elseStatement_1&#45;&gt;elseStatement_5</title>
<path fill="none" stroke="black" d="M400.38,-389.24C422.35,-377.74 451.64,-358.27 465,-331.25 472.09,-316.91 468.59,-310.84 465,-295.25 463,-286.58 458.25,-285.92 456.25,-277.25 452.66,-261.66 451.99,-256.67 456.25,-241.25 458.73,-232.27 464.52,-232.23 467,-223.25 471.26,-207.83 472.84,-202.15 467,-187.25 462.85,-176.66 455.53,-166.9 447.76,-158.67"/>
<polygon fill="black" stroke="black" points="450.28,-156.24 440.69,-151.75 445.38,-161.25 450.28,-156.24"/>
<text text-anchor="middle" x="472.88" y="-254.57" font-family="Times,serif" font-size="14.00">false</text>
</g>
<!-- elseStatement_3 -->
<g id="node10" class="node">
<title>elseStatement_3</title>
<polygon fill="none" stroke="black" points="357.62,-223.25 258.38,-223.25 258.38,-187.25 357.62,-187.25 357.62,-223.25"/>
<text text-anchor="middle" x="308" y="-200.57" font-family="Times,serif" font-size="14.00">this = what</text>
</g>
<!-- elseStatement_2&#45;&gt;elseStatement_3 -->
<g id="edge11" class="edge">
<title>elseStatement_2&#45;&gt;elseStatement_3</title>
<path fill="none" stroke="black" d="M339.08,-298.23C332.77,-292.39 326.21,-285.14 322,-277.25 315.05,-264.22 311.53,-248.18 309.76,-234.65"/>
<polygon fill="black" stroke="black" points="313.27,-234.63 308.76,-225.05 306.31,-235.35 313.27,-234.63"/>
<text text-anchor="middle" x="337" y="-254.57" font-family="Times,serif" font-size="14.00">true</text>
</g>
<!-- elseStatement_4 -->
<g id="node11" class="node">
<title>elseStatement_4</title>
<polygon fill="none" stroke="black" points="458,-223.25 376,-223.25 376,-187.25 458,-187.25 458,-223.25"/>
<text text-anchor="middle" x="417" y="-200.57" font-family="Times,serif" font-size="14.00">this = 24</text>
</g>
<!-- elseStatement_2&#45;&gt;elseStatement_4 -->
<g id="edge12" class="edge">
<title>elseStatement_2&#45;&gt;elseStatement_4</title>
<path fill="none" stroke="black" d="M362.76,-295.83C368.29,-281.02 377.39,-258.92 388.25,-241.25 390.05,-238.33 392.06,-235.39 394.17,-232.52"/>
<polygon fill="black" stroke="black" points="396.73,-234.93 400.15,-224.9 391.23,-230.61 396.73,-234.93"/>
<text text-anchor="middle" x="404.88" y="-254.57" font-family="Times,serif" font-size="14.00">false</text>
</g>
<!-- elseStatement_3&#45;&gt;elseStatement_5 -->
<g id="edge13" class="edge">
<title>elseStatement_3&#45;&gt;elseStatement_5</title>
<path fill="none" stroke="black" d="M334.66,-186.88C348.52,-177.86 365.66,-166.69 380.7,-156.89"/>
<polygon fill="black" stroke="black" points="382.5,-159.9 388.96,-151.51 378.68,-154.04 382.5,-159.9"/>
</g>
<!-- elseStatement_4&#45;&gt;elseStatement_5 -->
<g id="edge14" class="edge">
<title>elseStatement_4&#45;&gt;elseStatement_5</title>
<path fill="none" stroke="black" d="M417,-187.06C417,-179.48 417,-170.35 417,-161.79"/>
<polygon fill="black" stroke="black" points="420.5,-161.79 417,-151.79 413.5,-161.79 420.5,-161.79"/>
</g>
<!-- elseStatement_6 -->
<g id="node13" class="node">
<title>elseStatement_6</title>
<polygon fill="none" stroke="black" points="445.25,-71.25 376.75,-71.25 376.75,-47.25 445.25,-47.25 457.25,-59.25 445.25,-71.25"/>
<text text-anchor="middle" x="417" y="-54.58" font-family="Times,serif" font-size="14.00">RETURN</text>
</g>
<!-- elseStatement_5&#45;&gt;elseStatement_6 -->
<g id="edge15" class="edge">
<title>elseStatement_5&#45;&gt;elseStatement_6</title>
<path fill="none" stroke="black" d="M417,-114.06C417,-106.48 417,-97.35 417,-88.79"/>
<polygon fill="black" stroke="black" points="420.5,-88.79 417,-78.79 413.5,-88.79 420.5,-88.79"/>
</g>
<!-- elseIfStatement_0 -->
<g id="node14" class="node">
<title>elseIfStatement_0</title>
<polygon fill="none" stroke="black" points="670,-500 552,-500 552,-457.5 670,-457.5 670,-500"/>
<text text-anchor="middle" x="611" y="-482.7" font-family="Times,serif" font-size="14.00">var what = 42</text>
<text text-anchor="middle" x="611" y="-465.45" font-family="Times,serif" font-size="14.00">var this = 0</text>
</g>
<!-- elseIfStatement_1 -->
<g id="node15" class="node">
<title>elseIfStatement_1</title>
<polygon fill="none" stroke="black" points="611,-420.5 511.8,-402.5 611,-384.5 710.2,-402.5 611,-420.5"/>
<text text-anchor="middle" x="611" y="-397.82" font-family="Times,serif" font-size="14.00">if what &gt; 0 </text>
</g>
<!-- elseIfStatement_0&#45;&gt;elseIfStatement_1 -->
<g id="edge16" class="edge">
<title>elseIfStatement_0&#45;&gt;elseIfStatement_1</title>
<path fill="none" stroke="black" d="M611,-457.07C611,-449.25 611,-440.22 611,-431.82"/>
<polygon fill="black" stroke="black" points="614.5,-432.08 611,-422.08 607.5,-432.08 614.5,-432.08"/>
</g>
<!-- elseIfStatement_2 -->
<g id="node16" class="node">
<title>elseIfStatement_2</title>
<polygon fill="none" stroke="black" points="601.62,-277.25 502.38,-277.25 502.38,-241.25 601.62,-241.25 601.62,-277.25"/>
<text text-anchor="middle" x="552" y="-254.57" font-family="Times,serif" font-size="14.00">this = what</text>
</g>
<!-- elseIfStatement_1&#45;&gt;elseIfStatement_2 -->
<g id="edge17" class="edge">
<title>elseIfStatement_1&#45;&gt;elseIfStatement_2</title>
<path fill="none" stroke="black" d="M581.42,-389.48C558.11,-378.24 527.25,-359 513,-331.25 505.69,-317.02 506.48,-309.86 513,-295.25 514.44,-292.03 516.33,-288.98 518.51,-286.13"/>
<polygon fill="black" stroke="black" points="521.04,-288.56 525.23,-278.82 515.88,-283.82 521.04,-288.56"/>
<text text-anchor="middle" x="558" y="-353.2" font-family="Times,serif" font-size="14.00">true</text>
</g>
<!-- elseIfStatement_3 -->
<g id="node17" class="node">
<title>elseIfStatement_3</title>
<polygon fill="none" stroke="black" points="621,-331.25 521.8,-313.25 621,-295.25 720.2,-313.25 621,-331.25"/>
<text text-anchor="middle" x="621" y="-308.57" font-family="Times,serif" font-size="14.00">if what &lt; 0 </text>
</g>
<!-- elseIfStatement_1&#45;&gt;elseIfStatement_3 -->
<g id="edge18" class="edge">
<title>elseIfStatement_1&#45;&gt;elseIfStatement_3</title>
<path fill="none" stroke="black" d="M612.93,-384.68C614.29,-372.8 616.15,-356.61 617.73,-342.74"/>
<polygon fill="black" stroke="black" points="621.21,-343.16 618.87,-332.82 614.26,-342.36 621.21,-343.16"/>
<text text-anchor="middle" x="632.88" y="-353.2" font-family="Times,serif" font-size="14.00">false</text>
</g>
<!-- elseIfStatement_5 -->
<g id="node19" class="node">
<title>elseIfStatement_5</title>
<polygon fill="none" stroke="black" points="651.12,-150.25 548.88,-150.25 548.88,-114.25 651.12,-114.25 651.12,-150.25"/>
<text text-anchor="middle" x="600" y="-127.58" font-family="Times,serif" font-size="14.00">println(this)</text>
</g>
<!-- elseIfStatement_2&#45;&gt;elseIfStatement_5 -->
<g id="edge19" class="edge">
<title>elseIfStatement_2&#45;&gt;elseIfStatement_5</title>
<path fill="none" stroke="black" d="M544.14,-240.91C538.6,-226.09 533.41,-204.49 541,-187.25 545.96,-175.98 554.56,-166.04 563.69,-157.86"/>
<polygon fill="black" stroke="black" points="565.86,-160.61 571.33,-151.54 561.4,-155.22 565.86,-160.61"/>
</g>
<!-- elseIfStatement_4 -->
<g id="node18" class="node">
<title>elseIfStatement_4</title>
<polygon fill="none" stroke="black" points="649.62,-223.25 550.38,-223.25 550.38,-187.25 649.62,-187.25 649.62,-223.25"/>
<text text-anchor="middle" x="600" y="-200.57" font-family="Times,serif" font-size="14.00">what = this</text>
</g>
<!-- elseIfStatement_3&#45;&gt;elseIfStatement_4 -->
<g id="edge20" class="edge">
<title>elseIfStatement_3&#45;&gt;elseIfStatement_4</title>
<path fill="none" stroke="black" d="M617.72,-295.69C614.49,-279.39 609.5,-254.18 605.63,-234.68"/>
<polygon fill="black" stroke="black" points="609.07,-234.01 603.69,-224.88 602.2,-235.37 609.07,-234.01"/>
<text text-anchor="middle" x="628" y="-254.57" font-family="Times,serif" font-size="14.00">true</text>
</g>
<!-- elseIfStatement_3&#45;&gt;elseIfStatement_5 -->
<g id="edge21" class="edge">
<title>elseIfStatement_3&#45;&gt;elseIfStatement_5</title>
<path fill="none" stroke="black" d="M634.15,-297.46C638.82,-291.53 643.73,-284.41 647,-277.25 663.78,-240.55 675.26,-224.18 659,-187.25 654.04,-175.98 645.44,-166.04 636.31,-157.86"/>
<polygon fill="black" stroke="black" points="638.6,-155.22 628.67,-151.54 634.14,-160.61 638.6,-155.22"/>
<text text-anchor="middle" x="682.88" y="-200.57" font-family="Times,serif" font-size="14.00">false</text>
</g>
<!-- elseIfStatement_4&#45;&gt;elseIfStatement_5 -->
<g id="edge22" class="edge">
<title>elseIfStatement_4&#45;&gt;elseIfStatement_5</title>
<path fill="none" stroke="black" d="M600,-187.06C600,-179.48 600,-170.35 600,-161.79"/>
<polygon fill="black" stroke="black" points="603.5,-161.79 600,-151.79 596.5,-161.79 603.5,-161.79"/>
</g>
<!-- elseIfStatement_6 -->
<g id="node20" class="node">
<title>elseIfStatement_6</title>
<polygon fill="none" stroke="black" points="628.25,-71.25 559.75,-71.25 559.75,-47.25 628.25,-47.25 640.25,-59.25 628.25,-71.25"/>
<text text-anchor="middle" x="600" y="-54.58" font-family="Times,serif" font-size="14.00">RETURN</text>
</g>
<!-- elseIfStatement_5&#45;&gt;elseIfStatement_6 -->
<g id="edge23" class="edge">
<title>elseIfStatement_5&#45;&gt;elseIfStatement_6</title>
<path fill="none" stroke="black" d="M600,-114.06C600,-106.48 600,-97.35 600,-88.79"/>
<polygon fill="black" stroke="black" points="603.5,-88.79 600,-78.79 596.5,-88.79 603.5,-88.79"/>
</g>
</g>
</svg>
