<?xml version="1.0" encoding="UTF-8" standalone="no"?>
<!DOCTYPE svg PUBLIC "-//W3C//DTD SVG 1.1//EN"
 "http://www.w3.org/Graphics/SVG/1.1/DTD/svg11.dtd">
<!-- Generated by graphviz version 9.0.0 (0)
 -->
<!-- Pages: 1 -->
<svg width="688pt" height="549pt"
 viewBox="0.00 0.00 688.00 549.25" xmlns="http://www.w3.org/2000/svg" xmlns:xlink="http://www.w3.org/1999/xlink">
<g id="graph0" class="graph" transform="scale(1 1) rotate(0) translate(4 545.25)">
<polygon fill="white" stroke="none" points="-4,4 -4,-545.25 684,-545.25 684,4 -4,4"/>
<text text-anchor="middle" x="340" y="-7.95" font-family="Times,serif" font-size="14.00">samples/if.go</text>
<g id="clust1" class="cluster">
<title>cluster_ifStatement</title>
<polygon fill="none" stroke="black" points="8,-33.25 8,-533.25 214,-533.25 214,-33.25 8,-33.25"/>
<text text-anchor="middle" x="111" y="-515.95" font-family="Times,serif" font-size="14.00">ifStatement</text>
</g>
<g id="clust2" class="cluster">
<title>cluster_elseStatement</title>
<polygon fill="none" stroke="black" points="222,-33.25 222,-533.25 458,-533.25 458,-33.25 222,-33.25"/>
<text text-anchor="middle" x="340" y="-515.95" font-family="Times,serif" font-size="14.00">elseStatement</text>
</g>
<g id="clust3" class="cluster">
<title>cluster_elseIfStatement</title>
<polygon fill="none" stroke="black" points="466,-33.25 466,-533.25 672,-533.25 672,-33.25 466,-33.25"/>
<text text-anchor="middle" x="569" y="-515.95" font-family="Times,serif" font-size="14.00">elseIfStatement</text>
</g>
<!-- ifStatement_0 -->
<g id="node1" class="node">
<title>ifStatement_0</title>
<polygon fill="none" stroke="black" points="175,-500 57,-500 57,-457.5 175,-457.5 175,-500"/>
<text text-anchor="middle" x="116" y="-482.7" font-family="Times,serif" font-size="14.00">var what = 42</text>
<text text-anchor="middle" x="116" y="-465.45" font-family="Times,serif" font-size="14.00">var this = 0</text>
</g>
<!-- ifStatement_1 -->
<g id="node2" class="node">
<title>ifStatement_1</title>
<polygon fill="none" stroke="black" points="116,-420.5 30.93,-402.5 116,-384.5 201.07,-402.5 116,-420.5"/>
<text text-anchor="middle" x="116" y="-397.82" font-family="Times,serif" font-size="14.00">what &gt; 0 </text>
</g>
<!-- ifStatement_0&#45;&gt;ifStatement_1 -->
<g id="edge1" class="edge">
<title>ifStatement_0&#45;&gt;ifStatement_1</title>
<path fill="none" stroke="black" d="M116,-457.07C116,-449.25 116,-440.22 116,-431.82"/>
<polygon fill="black" stroke="black" points="119.5,-432.08 116,-422.08 112.5,-432.08 119.5,-432.08"/>
</g>
<!-- ifStatement_2 -->
<g id="node3" class="node">
<title>ifStatement_2</title>
<polygon fill="none" stroke="black" points="101,-331.25 15.93,-313.25 101,-295.25 186.07,-313.25 101,-331.25"/>
<text text-anchor="middle" x="101" y="-308.57" font-family="Times,serif" font-size="14.00">what &lt; 0 </text>
</g>
<!-- ifStatement_1&#45;&gt;ifStatement_2 -->
<g id="edge2" class="edge">
<title>ifStatement_1&#45;&gt;ifStatement_2</title>
<path fill="none" stroke="black" d="M113.11,-384.68C111.03,-372.61 108.19,-356.07 105.78,-342.05"/>
<polygon fill="black" stroke="black" points="109.28,-341.78 104.14,-332.51 102.38,-342.96 109.28,-341.78"/>
<text text-anchor="middle" x="124" y="-353.2" font-family="Times,serif" font-size="14.00">true</text>
</g>
<!-- ifStatement_4 -->
<g id="node5" class="node">
<title>ifStatement_4</title>
<polygon fill="none" stroke="black" points="203.12,-150.25 100.88,-150.25 100.88,-114.25 203.12,-114.25 203.12,-150.25"/>
<text text-anchor="middle" x="152" y="-127.58" font-family="Times,serif" font-size="14.00">println(this)</text>
</g>
<!-- ifStatement_1&#45;&gt;ifStatement_4 -->
<g id="edge3" class="edge">
<title>ifStatement_1&#45;&gt;ifStatement_4</title>
<path fill="none" stroke="black" d="M138.49,-388.98C157.53,-376.96 183.5,-356.87 195,-331.25 201.55,-316.65 199.26,-310.67 195,-295.25 192.52,-286.27 186.84,-286.2 184.25,-277.25 173.13,-238.81 192.52,-225.85 182,-187.25 179.43,-177.83 174.9,-168.29 170.12,-159.9"/>
<polygon fill="black" stroke="black" points="173.27,-158.33 165.08,-151.61 167.29,-161.97 173.27,-158.33"/>
<text text-anchor="middle" x="200.88" y="-254.57" font-family="Times,serif" font-size="14.00">false</text>
</g>
<!-- ifStatement_3 -->
<g id="node4" class="node">
<title>ifStatement_3</title>
<polygon fill="none" stroke="black" points="115.62,-223.25 16.38,-223.25 16.38,-187.25 115.62,-187.25 115.62,-223.25"/>
<text text-anchor="middle" x="66" y="-200.57" font-family="Times,serif" font-size="14.00">this = what</text>
</g>
<!-- ifStatement_2&#45;&gt;ifStatement_3 -->
<g id="edge4" class="edge">
<title>ifStatement_2&#45;&gt;ifStatement_3</title>
<path fill="none" stroke="black" d="M95.68,-296.15C90.28,-279.79 81.8,-254.11 75.29,-234.37"/>
<polygon fill="black" stroke="black" points="78.65,-233.39 72.19,-225 72,-235.59 78.65,-233.39"/>
<text text-anchor="middle" x="103" y="-254.57" font-family="Times,serif" font-size="14.00">true</text>
</g>
<!-- ifStatement_2&#45;&gt;ifStatement_4 -->
<g id="edge5" class="edge">
<title>ifStatement_2&#45;&gt;ifStatement_4</title>
<path fill="none" stroke="black" d="M111.58,-297.14C115.35,-291.18 119.32,-284.11 122,-277.25 137.05,-238.79 145.05,-191.46 148.91,-161.81"/>
<polygon fill="black" stroke="black" points="152.36,-162.48 150.09,-152.13 145.41,-161.63 152.36,-162.48"/>
<text text-anchor="middle" x="160.88" y="-200.57" font-family="Times,serif" font-size="14.00">false</text>
</g>
<!-- ifStatement_3&#45;&gt;ifStatement_4 -->
<g id="edge6" class="edge">
<title>ifStatement_3&#45;&gt;ifStatement_4</title>
<path fill="none" stroke="black" d="M86.82,-187.06C97.51,-178.23 110.73,-167.32 122.46,-157.64"/>
<polygon fill="black" stroke="black" points="124.42,-160.55 129.91,-151.49 119.97,-155.16 124.42,-160.55"/>
</g>
<!-- ifStatement_5 -->
<g id="node6" class="node">
<title>ifStatement_5</title>
<polygon fill="none" stroke="black" points="167,-71.25 125,-71.25 125,-47.25 167,-47.25 179,-59.25 167,-71.25"/>
<text text-anchor="middle" x="152" y="-54.58" font-family="Times,serif" font-size="14.00">EXIT</text>
</g>
<!-- ifStatement_4&#45;&gt;ifStatement_5 -->
<g id="edge7" class="edge">
<title>ifStatement_4&#45;&gt;ifStatement_5</title>
<path fill="none" stroke="black" d="M152,-114.06C152,-106.48 152,-97.35 152,-88.79"/>
<polygon fill="black" stroke="black" points="155.5,-88.79 152,-78.79 148.5,-88.79 155.5,-88.79"/>
</g>
<!-- elseStatement_0 -->
<g id="node7" class="node">
<title>elseStatement_0</title>
<polygon fill="none" stroke="black" points="411,-500 293,-500 293,-457.5 411,-457.5 411,-500"/>
<text text-anchor="middle" x="352" y="-482.7" font-family="Times,serif" font-size="14.00">var what = 42</text>
<text text-anchor="middle" x="352" y="-465.45" font-family="Times,serif" font-size="14.00">var this = 0</text>
</g>
<!-- elseStatement_1 -->
<g id="node8" class="node">
<title>elseStatement_1</title>
<polygon fill="none" stroke="black" points="352,-420.5 266.93,-402.5 352,-384.5 437.07,-402.5 352,-420.5"/>
<text text-anchor="middle" x="352" y="-397.82" font-family="Times,serif" font-size="14.00">what &gt; 0 </text>
</g>
<!-- elseStatement_0&#45;&gt;elseStatement_1 -->
<g id="edge8" class="edge">
<title>elseStatement_0&#45;&gt;elseStatement_1</title>
<path fill="none" stroke="black" d="M352,-457.07C352,-449.25 352,-440.22 352,-431.82"/>
<polygon fill="black" stroke="black" points="355.5,-432.08 352,-422.08 348.5,-432.08 355.5,-432.08"/>
</g>
<!-- elseStatement_2 -->
<g id="node9" class="node">
<title>elseStatement_2</title>
<polygon fill="none" stroke="black" points="315,-331.25 229.93,-313.25 315,-295.25 400.07,-313.25 315,-331.25"/>
<text text-anchor="middle" x="315" y="-308.57" font-family="Times,serif" font-size="14.00">what &lt; 0 </text>
</g>
<!-- elseStatement_1&#45;&gt;elseStatement_2 -->
<g id="edge9" class="edge">
<title>elseStatement_1&#45;&gt;elseStatement_2</title>
<path fill="none" stroke="black" d="M345.21,-385.5C339.89,-372.95 332.38,-355.23 326.17,-340.6"/>
<polygon fill="black" stroke="black" points="329.46,-339.38 322.33,-331.54 323.02,-342.12 329.46,-339.38"/>
<text text-anchor="middle" x="351" y="-353.2" font-family="Times,serif" font-size="14.00">true</text>
</g>
<!-- elseStatement_5 -->
<g id="node12" class="node">
<title>elseStatement_5</title>
<polygon fill="none" stroke="black" points="440.12,-150.25 337.88,-150.25 337.88,-114.25 440.12,-114.25 440.12,-150.25"/>
<text text-anchor="middle" x="389" y="-127.58" font-family="Times,serif" font-size="14.00">println(this)</text>
</g>
<!-- elseStatement_1&#45;&gt;elseStatement_5 -->
<g id="edge10" class="edge">
<title>elseStatement_1&#45;&gt;elseStatement_5</title>
<path fill="none" stroke="black" d="M366.97,-387.32C380.06,-374.06 398.56,-353.07 409,-331.25 426.65,-294.35 413.29,-279.32 428.25,-241.25 431.66,-232.58 436.52,-232.23 439,-223.25 443.26,-207.83 444.84,-202.15 439,-187.25 434.85,-176.66 427.53,-166.9 419.76,-158.67"/>
<polygon fill="black" stroke="black" points="422.28,-156.24 412.69,-151.75 417.38,-161.25 422.28,-156.24"/>
<text text-anchor="middle" x="444.88" y="-254.57" font-family="Times,serif" font-size="14.00">false</text>
</g>
<!-- elseStatement_3 -->
<g id="node10" class="node">
<title>elseStatement_3</title>
<polygon fill="none" stroke="black" points="329.62,-223.25 230.38,-223.25 230.38,-187.25 329.62,-187.25 329.62,-223.25"/>
<text text-anchor="middle" x="280" y="-200.57" font-family="Times,serif" font-size="14.00">this = what</text>
</g>
<!-- elseStatement_2&#45;&gt;elseStatement_3 -->
<g id="edge11" class="edge">
<title>elseStatement_2&#45;&gt;elseStatement_3</title>
<path fill="none" stroke="black" d="M304.38,-297.16C300.61,-291.19 296.65,-284.13 294,-277.25 288.82,-263.79 285.46,-248.11 283.35,-234.92"/>
<polygon fill="black" stroke="black" points="286.83,-234.54 281.94,-225.14 279.9,-235.54 286.83,-234.54"/>
<text text-anchor="middle" x="309" y="-254.57" font-family="Times,serif" font-size="14.00">true</text>
</g>
<!-- elseStatement_4 -->
<g id="node11" class="node">
<title>elseStatement_4</title>
<polygon fill="none" stroke="black" points="430,-223.25 348,-223.25 348,-187.25 430,-187.25 430,-223.25"/>
<text text-anchor="middle" x="389" y="-200.57" font-family="Times,serif" font-size="14.00">this = 24</text>
</g>
<!-- elseStatement_2&#45;&gt;elseStatement_4 -->
<g id="edge12" class="edge">
<title>elseStatement_2&#45;&gt;elseStatement_4</title>
<path fill="none" stroke="black" d="M324.02,-296.94C332.81,-282.32 346.78,-259.83 360.25,-241.25 362.31,-238.41 364.52,-235.5 366.77,-232.63"/>
<polygon fill="black" stroke="black" points="369.45,-234.89 373,-224.91 364,-230.49 369.45,-234.89"/>
<text text-anchor="middle" x="376.88" y="-254.57" font-family="Times,serif" font-size="14.00">false</text>
</g>
<!-- elseStatement_3&#45;&gt;elseStatement_5 -->
<g id="edge13" class="edge">
<title>elseStatement_3&#45;&gt;elseStatement_5</title>
<path fill="none" stroke="black" d="M306.66,-186.88C320.52,-177.86 337.66,-166.69 352.7,-156.89"/>
<polygon fill="black" stroke="black" points="354.5,-159.9 360.96,-151.51 350.68,-154.04 354.5,-159.9"/>
</g>
<!-- elseStatement_4&#45;&gt;elseStatement_5 -->
<g id="edge14" class="edge">
<title>elseStatement_4&#45;&gt;elseStatement_5</title>
<path fill="none" stroke="black" d="M389,-187.06C389,-179.48 389,-170.35 389,-161.79"/>
<polygon fill="black" stroke="black" points="392.5,-161.79 389,-151.79 385.5,-161.79 392.5,-161.79"/>
</g>
<!-- elseStatement_6 -->
<g id="node13" class="node">
<title>elseStatement_6</title>
<polygon fill="none" stroke="black" points="404,-71.25 362,-71.25 362,-47.25 404,-47.25 416,-59.25 404,-71.25"/>
<text text-anchor="middle" x="389" y="-54.58" font-family="Times,serif" font-size="14.00">EXIT</text>
</g>
<!-- elseStatement_5&#45;&gt;elseStatement_6 -->
<g id="edge15" class="edge">
<title>elseStatement_5&#45;&gt;elseStatement_6</title>
<path fill="none" stroke="black" d="M389,-114.06C389,-106.48 389,-97.35 389,-88.79"/>
<polygon fill="black" stroke="black" points="392.5,-88.79 389,-78.79 385.5,-88.79 392.5,-88.79"/>
</g>
<!-- elseIfStatement_0 -->
<g id="node14" class="node">
<title>elseIfStatement_0</title>
<polygon fill="none" stroke="black" points="628,-500 510,-500 510,-457.5 628,-457.5 628,-500"/>
<text text-anchor="middle" x="569" y="-482.7" font-family="Times,serif" font-size="14.00">var what = 42</text>
<text text-anchor="middle" x="569" y="-465.45" font-family="Times,serif" font-size="14.00">var this = 0</text>
</g>
<!-- elseIfStatement_1 -->
<g id="node15" class="node">
<title>elseIfStatement_1</title>
<polygon fill="none" stroke="black" points="569,-420.5 483.93,-402.5 569,-384.5 654.07,-402.5 569,-420.5"/>
<text text-anchor="middle" x="569" y="-397.82" font-family="Times,serif" font-size="14.00">what &gt; 0 </text>
</g>
<!-- elseIfStatement_0&#45;&gt;elseIfStatement_1 -->
<g id="edge16" class="edge">
<title>elseIfStatement_0&#45;&gt;elseIfStatement_1</title>
<path fill="none" stroke="black" d="M569,-457.07C569,-449.25 569,-440.22 569,-431.82"/>
<polygon fill="black" stroke="black" points="572.5,-432.08 569,-422.08 565.5,-432.08 572.5,-432.08"/>
</g>
<!-- elseIfStatement_2 -->
<g id="node16" class="node">
<title>elseIfStatement_2</title>
<polygon fill="none" stroke="black" points="573.62,-277.25 474.38,-277.25 474.38,-241.25 573.62,-241.25 573.62,-277.25"/>
<text text-anchor="middle" x="524" y="-254.57" font-family="Times,serif" font-size="14.00">this = what</text>
</g>
<!-- elseIfStatement_1&#45;&gt;elseIfStatement_2 -->
<g id="edge17" class="edge">
<title>elseIfStatement_1&#45;&gt;elseIfStatement_2</title>
<path fill="none" stroke="black" d="M545.13,-389.33C524.91,-377.55 497.31,-357.6 485,-331.25 478.23,-316.75 478.48,-309.86 485,-295.25 486.44,-292.03 488.33,-288.98 490.51,-286.13"/>
<polygon fill="black" stroke="black" points="493.04,-288.56 497.23,-278.82 487.88,-283.82 493.04,-288.56"/>
<text text-anchor="middle" x="527" y="-353.2" font-family="Times,serif" font-size="14.00">true</text>
</g>
<!-- elseIfStatement_3 -->
<g id="node17" class="node">
<title>elseIfStatement_3</title>
<polygon fill="none" stroke="black" points="579,-331.25 493.93,-313.25 579,-295.25 664.07,-313.25 579,-331.25"/>
<text text-anchor="middle" x="579" y="-308.57" font-family="Times,serif" font-size="14.00">what &lt; 0 </text>
</g>
<!-- elseIfStatement_1&#45;&gt;elseIfStatement_3 -->
<g id="edge18" class="edge">
<title>elseIfStatement_1&#45;&gt;elseIfStatement_3</title>
<path fill="none" stroke="black" d="M570.93,-384.68C572.29,-372.8 574.15,-356.61 575.73,-342.74"/>
<polygon fill="black" stroke="black" points="579.21,-343.16 576.87,-332.82 572.26,-342.36 579.21,-343.16"/>
<text text-anchor="middle" x="590.88" y="-353.2" font-family="Times,serif" font-size="14.00">false</text>
</g>
<!-- elseIfStatement_5 -->
<g id="node19" class="node">
<title>elseIfStatement_5</title>
<polygon fill="none" stroke="black" points="595.12,-150.25 492.88,-150.25 492.88,-114.25 595.12,-114.25 595.12,-150.25"/>
<text text-anchor="middle" x="544" y="-127.58" font-family="Times,serif" font-size="14.00">println(this)</text>
</g>
<!-- elseIfStatement_2&#45;&gt;elseIfStatement_5 -->
<g id="edge19" class="edge">
<title>elseIfStatement_2&#45;&gt;elseIfStatement_5</title>
<path fill="none" stroke="black" d="M498.25,-240.79C492.89,-235.81 487.97,-229.9 485,-223.25 478.48,-208.64 478.55,-201.89 485,-187.25 489.96,-175.98 498.56,-166.04 507.69,-157.86"/>
<polygon fill="black" stroke="black" points="509.86,-160.61 515.33,-151.54 505.4,-155.22 509.86,-160.61"/>
</g>
<!-- elseIfStatement_4 -->
<g id="node18" class="node">
<title>elseIfStatement_4</title>
<polygon fill="none" stroke="black" points="593.62,-223.25 494.38,-223.25 494.38,-187.25 593.62,-187.25 593.62,-223.25"/>
<text text-anchor="middle" x="544" y="-200.57" font-family="Times,serif" font-size="14.00">what = this</text>
</g>
<!-- elseIfStatement_3&#45;&gt;elseIfStatement_4 -->
<g id="edge20" class="edge">
<title>elseIfStatement_3&#45;&gt;elseIfStatement_4</title>
<path fill="none" stroke="black" d="M581.09,-295.21C582.22,-280.38 582.14,-258.6 575,-241.25 573.75,-238.22 572.13,-235.28 570.28,-232.48"/>
<polygon fill="black" stroke="black" points="573.16,-230.47 564.27,-224.71 567.62,-234.76 573.16,-230.47"/>
<text text-anchor="middle" x="596" y="-254.57" font-family="Times,serif" font-size="14.00">true</text>
</g>
<!-- elseIfStatement_3&#45;&gt;elseIfStatement_5 -->
<g id="edge21" class="edge">
<title>elseIfStatement_3&#45;&gt;elseIfStatement_5</title>
<path fill="none" stroke="black" d="M597.89,-299.05C604.61,-293.23 611.4,-285.76 615,-277.25 621.23,-262.51 616.75,-257.15 615,-241.25 612.32,-216.81 615.3,-208.53 603,-187.25 596.62,-176.21 587.21,-166.13 577.78,-157.76"/>
<polygon fill="black" stroke="black" points="580.27,-155.28 570.36,-151.54 575.78,-160.64 580.27,-155.28"/>
<text text-anchor="middle" x="629.88" y="-200.57" font-family="Times,serif" font-size="14.00">false</text>
</g>
<!-- elseIfStatement_4&#45;&gt;elseIfStatement_5 -->
<g id="edge22" class="edge">
<title>elseIfStatement_4&#45;&gt;elseIfStatement_5</title>
<path fill="none" stroke="black" d="M544,-187.06C544,-179.48 544,-170.35 544,-161.79"/>
<polygon fill="black" stroke="black" points="547.5,-161.79 544,-151.79 540.5,-161.79 547.5,-161.79"/>
</g>
<!-- elseIfStatement_6 -->
<g id="node20" class="node">
<title>elseIfStatement_6</title>
<polygon fill="none" stroke="black" points="559,-71.25 517,-71.25 517,-47.25 559,-47.25 571,-59.25 559,-71.25"/>
<text text-anchor="middle" x="544" y="-54.58" font-family="Times,serif" font-size="14.00">EXIT</text>
</g>
<!-- elseIfStatement_5&#45;&gt;elseIfStatement_6 -->
<g id="edge23" class="edge">
<title>elseIfStatement_5&#45;&gt;elseIfStatement_6</title>
<path fill="none" stroke="black" d="M544,-114.06C544,-106.48 544,-97.35 544,-88.79"/>
<polygon fill="black" stroke="black" points="547.5,-88.79 544,-78.79 540.5,-88.79 547.5,-88.79"/>
</g>
</g>
</svg>
